PathFileType	4	(X/Y/Z)	C:\Users\WrightLab\Desktop\Jo\P5V11.trc
DataRate	CameraRate	NumFrames	NumMarkers	Units	OrigDataRate	OrigDataStartFrame	OrigNumFrames
100.00	100.00	       9	19	mm	100.00	302	       804
Frame#	Time	Headset_Front			Headset_Back			Headset_Left			Headset_Right			Left_Shoulder			Right_Shoulder			Sternum			C7			Left Elbow			Right Elbow			Left Wrist			Right Wrist			Left ASIS			Right ASIS			S2			Left Knee			Right Knee			Left Ankle			Right Ankle			
		X1	Y1	Z1	X2	Y2	Z2	X3	Y3	Z3	X4	Y4	Z4	X5	Y5	Z5	X6	Y6	Z6	X7	Y7	Z7	X8	Y8	Z8	X9	Y9	Z9	X10	Y10	Z10	X11	Y11	Z11	X12	Y12	Z12	X13	Y13	Z13	X14	Y14	Z14	X15	Y15	Z15	X16	Y16	Z16	X17	Y17	Z17	X18	Y18	Z18	X19	Y19	Z19	

302	3.010	314.85263	1571.95557	-323.56802	385.34631	1680.21558	-488.93359							440.08707	1516.33069	-689.90326	116.14503	1433.91785	-453.31976	338.20648	1324.97595	-498.16278	190.82616	1517.97205	-661.67175	525.38849	1214.21899	-742.40704	16.02061	1153.78455	-472.96866	593.29132	979.01489	-689.96161	93.08443	936.52136	-357.05649	476.26062	942.72925	-583.96570	234.64505	943.44501	-414.01227	227.64673	969.20056	-745.85205	544.12982	528.08405	-608.91650	242.02321	491.25339	-426.73895	445.35367	154.05560	-744.12903	191.96799	98.57910	-638.92639	
303	3.020	315.33209	1572.80249	-317.16592	387.72189	1680.94458	-482.49445							445.28983	1516.57043	-681.73352	117.70345	1433.99756	-449.74631	339.41092	1324.39294	-490.73792	195.63687	1518.52222	-656.66180	530.51239	1215.08093	-734.44958	18.27622	1154.52246	-470.41284	597.34796	978.16541	-684.00513	94.88439	936.92853	-354.26889	478.11520	941.99194	-574.42853	234.35738	943.87469	-410.13739	234.16187	969.45648	-742.27356	547.16687	527.39520	-599.97266	241.34525	490.71802	-425.73630	467.97797	147.64948	-724.65479	192.54254	98.92439	-638.37988	
304	3.030	316.63663	1573.61377	-311.32581	389.99365	1681.70959	-475.94821							450.65399	1516.51965	-673.15417	119.37581	1434.46716	-445.81351	342.08005	1323.69568	-483.89636	200.81824	1518.66687	-651.79761	536.40167	1215.58813	-726.58069	20.09952	1154.77478	-467.77322	603.34973	978.17816	-677.91754	96.30479	937.41815	-351.91757	481.49466	942.29816	-566.62231	233.91386	944.09583	-406.20129	240.69907	969.77332	-738.18213	549.56262	526.26105	-590.40344	238.77661	489.32196	-425.14932	489.35739	142.45407	-703.88849	193.53868	99.99937	-637.38312	
305	3.040	316.73999	1574.49084	-304.60727	392.65051	1681.87500	-468.27368							455.53207	1516.74866	-665.32458	123.27404	1434.71472	-441.48984	345.01581	1324.16626	-477.10568	205.70644	1519.31177	-646.87701	541.91461	1215.90820	-718.61566	23.22448	1154.80103	-464.99033	608.04871	977.34076	-671.84100	97.61024	937.75476	-349.14417	483.67621	941.03149	-557.52832	234.76140	943.87164	-402.10797	247.27634	970.31775	-734.40912	551.87408	524.95160	-580.70264	237.70834	488.51913	-424.40842	509.48129	136.36383	-682.74567	193.61198	100.46030	-637.49353	
306	3.050	317.22861	1575.03162	-298.15500	395.14069	1682.29639	-460.39142							460.53970	1516.94348	-656.68494	124.39081	1434.18811	-437.47766	347.38596	1324.49658	-469.75974	210.33638	1519.05920	-641.52570	546.97656	1215.85461	-710.30298	24.72108	1155.68909	-462.40723	613.13220	977.01453	-664.34375	98.77002	938.20929	-346.64169	485.45172	940.91876	-549.31824	234.64894	944.07019	-398.26804	254.05930	970.81201	-729.73151	553.36194	523.55615	-571.08856	236.97873	488.28055	-422.98062	529.06647	131.01070	-660.63470	194.02394	100.61739	-637.03601	
307	3.060	318.01001	1575.29675	-291.59750	397.39444	1682.54443	-453.76147							465.73618	1516.46472	-647.54657	125.91602	1434.05530	-434.23996	348.87875	1323.79846	-463.39468	214.66315	1519.51294	-636.07495	552.63232	1216.04407	-701.45557	26.71998	1155.68787	-460.23941	618.18561	976.95917	-657.69879	100.20805	937.74414	-343.42145	488.36139	940.14966	-541.25684	234.28589	943.79315	-394.32401	260.81763	970.92834	-724.84888	554.44135	522.07062	-561.96027	234.77675	487.23398	-422.54810	547.97620	126.33847	-637.46735	193.60802	101.77479	-637.03510	
308	3.070	318.39471	1575.68018	-284.83807	399.51031	1683.04407	-447.09341							470.56989	1516.64880	-639.08716	128.98271	1433.67712	-428.59451	352.28629	1323.52112	-455.30246	219.58430	1519.56653	-630.85535	557.68353	1216.48999	-693.07385	28.07140	1156.04358	-457.12439	622.78027	976.34326	-650.55225	100.88680	937.97003	-340.93671	490.77322	939.81696	-532.67664	234.55391	943.63684	-389.94766	267.31375	971.37042	-719.75317	555.61023	521.03796	-552.57477	233.10191	486.10916	-421.95795	565.48804	122.82855	-612.64636	193.95276	102.22923	-636.77222	
309	3.080	319.34238	1575.79626	-278.26886	402.06299	1682.88354	-438.91083							475.09656	1516.80591	-630.85114	131.24612	1433.57629	-424.48257	355.02621	1323.89795	-448.20419	224.61804	1519.17822	-624.43378	563.09357	1216.40039	-683.73267	29.75457	1155.89478	-454.17792	626.91748	975.29218	-643.29791	101.53053	937.90979	-338.36899	492.33728	939.08545	-524.87494	234.57819	942.69183	-386.52594	273.98602	971.19824	-714.23419	556.15356	519.71429	-543.20551	230.80054	485.05197	-420.84140	582.01270	119.70891	-587.54773	194.21159	103.10150	-636.58154	
310	3.090	319.76810	1576.26111	-271.53391	404.24442	1682.95886	-431.25882							479.92957	1516.45654	-621.60681	132.40291	1432.94104	-420.42786	356.56619	1323.07263	-440.98166	228.89375	1519.30750	-619.02820	568.46625	1215.93738	-674.81805	31.20132	1155.51001	-450.82166	631.66241	975.10754	-635.62231	102.73823	937.49506	-335.36353	495.30826	939.42487	-516.61414	235.08643	942.68256	-381.58862	280.18124	971.31329	-708.88318	556.23987	518.05420	-534.49365	230.02750	484.95782	-420.13535	597.01898	117.45383	-562.54999	194.63495	104.77891	-635.28821	
